<?xml version="1.0" encoding="utf-8"?><svg viewBox="2.6 1.6 20.88 20.88" fill="none" stroke="currentColor" stroke-width="1.5" stroke-linecap="round" stroke-linejoin="round" xmlns="http://www.w3.org/2000/svg"><path d="M 22.04 15.999 L 22.04 7.999 C 22.039 7.285 21.658 6.626 21.04 6.269 L 14.04 2.269 C 13.421 1.912 12.659 1.912 12.04 2.269 L 5.04 6.269 C 4.422 6.626 4.041 7.285 4.04 7.999 L 4.04 15.999 C 4.041 16.713 4.422 17.372 5.04 17.729 L 12.04 21.729 C 12.659 22.086 13.421 22.086 14.04 21.729 L 21.04 17.729 C 21.658 17.372 22.039 16.713 22.04 15.999 Z"/><polyline points="4.31 6.959 13.04 12.009 21.77 6.959"/><line x1="13.04" y1="22.079" x2="13.04" y2="11.999"/></svg>