<?xml version="1.0" encoding="UTF-8"?>
<svg id="Capa_2" data-name="Capa 2" xmlns="http://www.w3.org/2000/svg" viewBox="0 0 49.95 49.95">
  <defs>
    <style>
      .cls-1 {
        stroke: #000;
        stroke-miterlimit: 10;
        stroke-width: 1.5px;
      }
    </style>
  </defs>
  <g id="Layer_1" data-name="Layer 1">
    <path class="cls-1" d="m46.04,8.88h-27.19c-.02-4.48-3.67-8.13-8.16-8.13C5.21.75.75,5.21.75,10.69v27.46c0,.16.04.31.1.45.7,5.46,5.04,9.79,10.5,10.5.14.06.29.1.45.1h34.24c1.74,0,3.16-1.42,3.16-3.16V12.04c0-1.74-1.42-3.16-3.16-3.16ZM2.86,10.69c0-4.32,3.51-7.83,7.83-7.83,3.34,0,6.05,2.72,6.05,6.05v20.9c-1.49-1.66-3.65-2.71-6.05-2.71-3.18,0-6.01,1.5-7.83,3.83V10.69Zm44.23,35.35c0,.58-.47,1.05-1.05,1.05H12.91c-5.54,0-10.05-4.51-10.05-10.05,0-4.32,3.51-7.83,7.83-7.83,3.34,0,6.05,2.72,6.05,6.05,0,2.55-2.08,4.63-4.63,4.63-1.93,0-3.49-1.57-3.49-3.5,0-1.42,1.16-2.58,2.59-2.58.58,0,1.05-.47,1.05-1.05s-.47-1.05-1.05-1.05c-2.59,0-4.69,2.1-4.69,4.69,0,3.09,2.51,5.6,5.6,5.6,3.72,0,6.74-3.02,6.74-6.74V10.98h27.19c.58,0,1.05.47,1.05,1.05v34Z"/>
  </g>
</svg>