<?xml version="1.0" encoding="UTF-8" standalone="no"?>
<!-- Created with Inkscape (http://www.inkscape.org/) -->

<svg
   version="1.1"
   id="svg350"
   width="65.595947"
   height="65.61441"
   viewBox="0 0 65.595947 65.61441"
   xmlns="http://www.w3.org/2000/svg"
   xmlns:svg="http://www.w3.org/2000/svg">
  <defs
     id="defs354">
    <clipPath
       clipPathUnits="userSpaceOnUse"
       id="clipPath366">
      <path
         d="M 0,300 H 400 V 0 H 0 Z"
         id="path364" />
    </clipPath>
  </defs>
  <g
     id="g358"
     transform="matrix(1.3333333,0,0,-1.3333333,-227.5896,231.90649)">
    <g
       id="g360">
      <g
         id="g362"
         clip-path="url(#clipPath366)">
        <g
           id="g368"
           transform="translate(121.0479,138.7422)">
          <path
             d="m 0,0 c 0,-0.771 -0.608,-1.824 -1.276,-2.21 l -19.298,-11.142 c -0.066,-0.038 -0.143,-0.07 -0.223,-0.1 V 9.417 L -0.022,21.411 C -0.01,21.328 0,21.245 0,21.167 Z M -42.423,-2.21 C -43.091,-1.824 -43.7,-0.771 -43.7,0 v 21.167 c 0,0.078 0.011,0.161 0.023,0.244 L -22.903,9.417 v -22.869 c -0.079,0.03 -0.157,0.062 -0.223,0.1 z m 19.298,36.729 c 0.317,0.183 0.782,0.288 1.275,0.288 0.494,0 0.958,-0.105 1.276,-0.289 L -1.276,23.377 c 0.068,-0.039 0.134,-0.09 0.2,-0.142 L -21.85,11.241 -42.625,23.235 c 0.067,0.052 0.133,0.103 0.202,0.142 z M -0.223,25.201 -19.52,36.342 c -0.637,0.368 -1.465,0.571 -2.33,0.571 -0.865,0 -1.692,-0.203 -2.329,-0.571 L -43.477,25.201 c -1.328,-0.766 -2.329,-2.501 -2.329,-4.034 V 0 c 0,-1.533 1.001,-3.268 2.329,-4.034 l 19.298,-11.142 c 0.637,-0.368 1.464,-0.57 2.329,-0.57 0.865,0 1.692,0.202 2.329,0.57 L -0.223,-4.034 C 1.105,-3.268 2.106,-1.533 2.106,0 v 21.167 c 0,1.533 -1.001,3.268 -2.329,4.034"
             style="fill:#000000;fill-opacity:1;fill-rule:nonzero;stroke:none"
             id="path370" />
        </g>
        <g
           id="g372"
           transform="translate(217.4062,128.2617)">
          <path
             d="M -0.51067718,0 C -0.51057028,-0.57999999 -0.47300536,-0.53983041 -1.053,-0.54232282 L -34.039608,-0.68407638 C -39.581556,-0.70789183 -43.719151,3.456 -43.719151,8.998 c 0,4.318 2.999151,7.313608 7.317151,7.313608 3.338,0 5.529433,-2.198608 5.529433,-5.536608 0,-2.554 -1.554433,-4.1240057 -4.108433,-4.1240057 -1.927,0 -2.988006,1.0610057 -2.988006,2.9880057 0,1.424 0.653006,2.061433 2.078006,2.061433 0.582,0 1.427411,0.994567 1.427411,1.575567 0,0.582 -0.845411,1.577567 -1.427411,1.577567 -2.587,0 -5.215567,-2.627567 -5.215567,-5.214567 0,-3.089 2.655392,-6.1089943 5.744392,-6.1089943 3.716,0 7.666992,3.530067 7.643742,7.2449943 l -0.148592,23.742901 26.814,0.01007 c 0.57999996,2.18e-4 0.53597444,0.05303 0.53608134,-0.52697 z M -43.71772,35.35 c -4.62e-4,4.318 2.99772,7.325437 7.31572,7.325437 3.338,0 5.537273,-2.210437 5.537039,-5.548437 l -0.0014,-20.381608 c -1.494,1.658 -3.133608,2.708 -5.535608,2.708 -3.179,0 -5.493608,-1.502 -7.313608,-3.831 z M -1.053,37.675961 h -26.654901 c -0.018,4.485 -4.206099,8.153313 -8.694099,8.153313 -5.48,0 -10.448127,-5.000276 -10.45228,-10.479274 L -46.8751,7.889 c -1.22e-4,-0.161 0.04193,-0.312 0.10593,-0.449 0.702,-5.459 5.569169,-10.3348729 11.029169,-11.0368729 0.136,-0.064 0.287,-0.084276 0.448,-0.084294 l 34.239,-0.00386 C 0.68899999,-3.6852186 2.7596766,-1.742 2.7600696,0 l 0.00767,34.001 C 2.7681325,35.743 0.689,37.675961 -1.053,37.675961"
             style="fill:#000000;fill-opacity:1;fill-rule:nonzero;stroke:none"
             id="path374" />
        </g>
        <g
           id="g376"
           transform="translate(331.1504,156.1494)">
          <path
             d="m 0,0 c 0,-0.58 -0.473,-1.054 -1.053,-1.054 h -2.556 c -6.106,0 -11.073,-4.966 -11.073,-11.071 0,-4.052 3.283,-7.352 7.328,-7.381 v -3.598 h -7.218 c -0.741,3.272 -4.895,5.704 -10.063,5.704 -5.168,0 -9.322,-2.432 -10.063,-5.704 h -7.218 v 3.598 c 4.046,0.028 7.328,3.329 7.328,7.381 V 5.945 5.947 9.455 H -1.053 C -0.473,9.455 0,8.983 0,8.402 Z m -41.97,-4.744 c -5.538,0 -10.106,4.234 -10.637,9.636 h 15.913 V -6.972 c -1.341,1.372 -3.209,2.228 -5.276,2.228 m 40.917,16.306 h -34.589 c -0.581,0 -1.053,-0.471 -1.053,-1.053 V 6.998 h -17.017 c -0.582,0 -1.054,-0.472 -1.054,-1.053 0,-7.055 5.741,-12.796 12.796,-12.796 2.909,0 5.276,-2.365 5.276,-5.274 0,-2.908 -2.367,-5.275 -5.276,-5.275 h -0.999 c -0.582,0 -1.052,-0.472 -1.052,-1.053 v -5.703 c 0,-0.582 0.47,-1.054 1.052,-1.054 h 9.206 c 0.582,0 1.054,0.472 1.054,1.054 0,2.52 3.697,4.649 8.074,4.649 4.377,0 8.074,-2.129 8.074,-4.649 0,-0.582 0.472,-1.054 1.053,-1.054 h 9.207 c 0.582,0 1.053,0.472 1.053,1.054 v 5.703 c 0,0.581 -0.471,1.053 -1.053,1.053 H -7.3 c -2.909,0 -5.275,2.367 -5.275,5.275 0,4.943 4.022,8.966 8.966,8.966 h 2.556 c 1.742,0 3.159,1.417 3.159,3.159 v 8.402 c 0,1.743 -1.417,3.16 -3.159,3.16"
             style="fill:#000000;fill-opacity:1;fill-rule:nonzero;stroke:none"
             id="path378" />
        </g>
      </g>
    </g>
  </g>
</svg>
