<svg id="Capa_2" data-name="Capa 2" xmlns="http://www.w3.org/2000/svg" viewBox="0.01 0 47.94 47.95">   <g id="Layer_1" data-name="Layer 1">     <path d="m10.8,47.95c-.11,0-.23-.03-.34-.08-5.44-.71-9.67-4.94-10.35-10.3-.07-.19-.1-.3-.1-.42V9.69C0,4.35,4.35,0,9.69,0c4.34,0,7.89,3.53,7.91,7.88v.25h27.44c1.6,0,2.91,1.31,2.91,2.91v34c0,1.6-1.31,2.91-2.91,2.91H10.8Zm-1.11-19.99c-4.46,0-8.08,3.62-8.08,8.08,0,5.68,4.62,10.3,10.3,10.3h33.13c.72,0,1.3-.58,1.3-1.3V11.04c0-.72-.58-1.3-1.3-1.3h-27.44v24.53c0,3.58-2.91,6.49-6.49,6.49-2.95,0-5.35-2.4-5.35-5.35,0-2.45,1.99-4.44,4.44-4.44.44,0,.8.36.8.8s-.36.8-.8.8c-1.56,0-2.84,1.27-2.84,2.83,0,2.07,1.68,3.75,3.74,3.75,2.69,0,4.88-2.19,4.88-4.88,0-3.48-2.83-6.3-6.3-6.3Zm0-26.35C5.23,1.61,1.61,5.23,1.61,9.69v20.97l.45-.57c1.86-2.37,4.64-3.73,7.63-3.73,2.23,0,4.36.96,5.87,2.62l.44.48V7.91c0-3.48-2.83-6.3-6.3-6.3Z"></path>   </g> </svg>