<svg
   version="1.1"
   id="svg2"
   width="78.496033"
   height="51.695984"
   viewBox="0 0 78.496032 51.695983"
   xmlns="http://www.w3.org/2000/svg"
   xmlns:svg="http://www.w3.org/2000/svg">
  <defs
     id="defs6">
    <clipPath
       clipPathUnits="userSpaceOnUse"
       id="clipPath18">
      <path
         d="M 0,841.89 H 1190.55 V 0 H 0 Z"
         id="path16" />
    </clipPath>
  </defs>
  <g
     id="g10"
     transform="matrix(1.3333333,0,0,-1.3333333,-749.90437,533.24143)">
    <g
       id="g12">
      <g
         id="g14"
         clip-path="url(#clipPath18)">
        <g
           id="g20"
           transform="translate(618.1943,387.3691)">
          <path
             d="m 0,0 c 0,-0.58 -0.473,-1.054 -1.053,-1.054 h -2.556 c -6.106,0 -11.073,-4.967 -11.073,-11.071 0,-4.052 3.283,-7.352 7.328,-7.381 v -3.598 h -7.218 c -0.741,3.272 -4.895,5.704 -10.063,5.704 -5.168,0 -9.322,-2.432 -10.063,-5.704 h -7.218 v 3.598 c 4.046,0.028 7.328,3.329 7.328,7.381 V 5.944 5.946 9.455 H -1.053 C -0.473,9.455 0,8.983 0,8.401 Z m -41.97,-4.744 c -5.538,0 -10.106,4.233 -10.637,9.636 h 15.913 V -6.972 c -1.341,1.371 -3.209,2.228 -5.276,2.228 m 40.917,16.306 h -34.589 c -0.581,0 -1.053,-0.471 -1.053,-1.053 V 6.998 h -17.017 c -0.582,0 -1.054,-0.472 -1.054,-1.054 0,-7.054 5.741,-12.795 12.796,-12.795 2.909,0 5.276,-2.365 5.276,-5.274 0,-2.908 -2.367,-5.275 -5.276,-5.275 h -0.999 c -0.582,0 -1.052,-0.472 -1.052,-1.053 v -5.703 c 0,-0.582 0.47,-1.054 1.052,-1.054 h 9.206 c 0.582,0 1.054,0.472 1.054,1.054 0,2.52 3.697,4.649 8.074,4.649 4.377,0 8.074,-2.129 8.074,-4.649 0,-0.582 0.472,-1.054 1.053,-1.054 h 9.207 c 0.582,0 1.053,0.472 1.053,1.054 v 5.703 c 0,0.581 -0.471,1.053 -1.053,1.053 H -7.3 c -2.909,0 -5.275,2.367 -5.275,5.275 0,4.943 4.022,8.966 8.966,8.966 h 2.556 c 1.742,0 3.159,1.417 3.159,3.159 v 8.401 c 0,1.745 -1.417,3.161 -3.159,3.161"
             style="fill:#000000;fill-opacity:1;fill-rule:nonzero;stroke:none"
             id="path22" />
        </g>
        <g
           id="g24"
           transform="translate(618.1943,387.3691)">
          <path
             d="m 0,0 c 0,-0.58 -0.473,-1.054 -1.053,-1.054 h -2.556 c -6.106,0 -11.073,-4.967 -11.073,-11.071 0,-4.052 3.283,-7.352 7.328,-7.381 v -3.598 h -7.218 c -0.741,3.272 -4.895,5.704 -10.063,5.704 -5.168,0 -9.322,-2.432 -10.063,-5.704 h -7.218 v 3.598 c 4.046,0.028 7.328,3.329 7.328,7.381 V 5.944 5.946 9.455 H -1.053 C -0.473,9.455 0,8.983 0,8.401 Z m -41.97,-4.744 c -5.538,0 -10.106,4.233 -10.637,9.636 h 15.913 V -6.972 c -1.341,1.371 -3.209,2.228 -5.276,2.228 m 40.917,16.306 h -34.589 c -0.581,0 -1.053,-0.471 -1.053,-1.053 V 6.998 h -17.017 c -0.582,0 -1.054,-0.472 -1.054,-1.054 0,-7.054 5.741,-12.795 12.796,-12.795 2.909,0 5.276,-2.365 5.276,-5.274 0,-2.908 -2.367,-5.275 -5.276,-5.275 h -0.999 c -0.582,0 -1.052,-0.472 -1.052,-1.053 v -5.703 c 0,-0.582 0.47,-1.054 1.052,-1.054 h 9.206 c 0.582,0 1.054,0.472 1.054,1.054 0,2.52 3.697,4.649 8.074,4.649 4.377,0 8.074,-2.129 8.074,-4.649 0,-0.582 0.472,-1.054 1.053,-1.054 h 9.207 c 0.582,0 1.053,0.472 1.053,1.054 v 5.703 c 0,0.581 -0.471,1.053 -1.053,1.053 H -7.3 c -2.909,0 -5.275,2.367 -5.275,5.275 0,4.943 4.022,8.966 8.966,8.966 h 2.556 c 1.742,0 3.159,1.417 3.159,3.159 v 8.401 c 0,1.745 -1.417,3.161 -3.159,3.161"
             style="fill:none;stroke:#000000;stroke-width:2;stroke-linecap:butt;stroke-linejoin:miter;stroke-miterlimit:10;stroke-dasharray:none;stroke-opacity:1"
             id="path26" />
        </g>
      </g>
    </g>
  </g>
</svg>
