<?xml version="1.0" encoding="utf-8"?><svg viewBox="0 17.8 100 100" xmlns="http://www.w3.org/2000/svg"><path d="M 94.775 35.602 L 33.503 35.602 C 32.68 35.602 32.011 36.269 32.011 37.093 L 32.011 43.686 L 1.493 43.686 C 0.669 43.687 0 44.354 0 45.178 C 0 57.472 10.001 67.472 22.294 67.472 C 27.653 67.472 32.012 71.83 32.012 77.188 C 32.012 82.547 27.654 86.907 22.294 86.907 L 20.523 86.907 C 19.698 86.907 19.03 87.575 19.03 88.399 L 19.03 98.503 C 19.03 99.327 19.698 99.997 20.523 99.997 L 36.833 99.997 C 37.657 99.997 38.325 99.327 38.325 98.503 C 38.325 93.837 45.045 89.894 53.001 89.894 C 60.958 89.894 67.679 93.837 67.679 98.503 C 67.679 99.327 68.346 99.997 69.17 99.997 L 85.48 99.997 C 86.304 99.997 86.972 99.327 86.972 98.503 L 86.972 88.399 C 86.972 87.575 86.304 86.907 85.48 86.907 L 83.71 86.907 C 78.352 86.907 73.992 82.548 73.992 77.188 C 73.992 68.226 81.285 60.935 90.248 60.935 L 94.775 60.935 C 97.656 60.935 100 58.591 100 55.71 L 100 40.826 C 100 37.945 97.656 35.602 94.775 35.602 Z M 22.294 64.486 C 12.149 64.486 3.807 56.622 3.042 46.671 L 32.012 46.671 L 32.012 69.024 C 29.679 66.254 26.19 64.486 22.294 64.486 Z M 97.015 55.71 C 97.015 56.944 96.011 57.949 94.776 57.949 L 90.249 57.949 C 79.64 57.949 71.008 66.579 71.008 77.188 C 71.008 84.194 76.706 89.893 83.711 89.893 L 83.988 89.893 L 83.988 97.01 L 70.524 97.01 C 69.441 91.237 62.132 86.906 53.001 86.906 C 43.87 86.906 36.562 91.236 35.479 97.01 L 22.016 97.01 L 22.016 89.893 L 22.294 89.893 C 29.299 89.893 34.996 84.194 34.996 77.188 L 34.996 45.178 C 34.996 45.178 34.996 45.176 34.996 45.174 L 34.996 38.586 L 94.775 38.586 C 96.01 38.586 97.014 39.591 97.014 40.826 L 97.014 55.71 L 97.015 55.71 Z"/></svg>