<?xml version="1.0" encoding="utf-8"?>
<!-- Generator: Adobe Illustrator 16.0.0, SVG Export Plug-In . SVG Version: 6.00 Build 0)  -->
<!DOCTYPE svg PUBLIC "-//W3C//DTD SVG 1.1//EN" "http://www.w3.org/Graphics/SVG/1.1/DTD/svg11.dtd">
<svg version="1.1" id="Layer_1" xmlns="http://www.w3.org/2000/svg" xmlns:xlink="http://www.w3.org/1999/xlink" x="0px" y="0px"
	 width="100px" height="100px" viewBox="0 0 100 100" enable-background="new 0 0 100 100" xml:space="preserve">
<path d="M94.775,17.803H33.503c-0.823,0-1.492,0.667-1.492,1.491v6.593H1.493C0.669,25.888,0,26.555,0,27.379
	c0,12.294,10.001,22.294,22.294,22.294c5.359,0,9.718,4.358,9.718,9.716c0,5.359-4.358,9.719-9.718,9.719h-1.771
	c-0.825,0-1.493,0.668-1.493,1.492v10.104c0,0.824,0.668,1.494,1.493,1.494h16.31c0.824,0,1.492-0.67,1.492-1.494
	c0-4.666,6.72-8.609,14.676-8.609c7.957,0,14.678,3.943,14.678,8.609c0,0.824,0.667,1.494,1.491,1.494H85.48
	c0.824,0,1.492-0.67,1.492-1.494V70.6c0-0.824-0.668-1.492-1.492-1.492H83.71c-5.358,0-9.718-4.359-9.718-9.719
	c0-8.962,7.293-16.253,16.256-16.253h4.527c2.881,0,5.225-2.344,5.225-5.225V23.027C100,20.146,97.656,17.803,94.775,17.803z
	 M22.294,46.687c-10.145,0-18.487-7.864-19.252-17.815h28.97v22.353C29.679,48.455,26.19,46.687,22.294,46.687z M97.015,37.911
	c0,1.234-1.004,2.239-2.239,2.239h-4.527c-10.609,0-19.241,8.63-19.241,19.239c0,7.006,5.698,12.705,12.703,12.705h0.277v7.117
	H70.524c-1.083-5.773-8.392-10.104-17.523-10.104c-9.131,0-16.439,4.33-17.522,10.104H22.016v-7.117h0.278
	c7.005,0,12.702-5.699,12.702-12.705v-32.01c0,0,0-0.002,0-0.004v-6.588h59.779c1.235,0,2.239,1.005,2.239,2.24V37.911z"/>
</svg>
