<svg xmlns="http://www.w3.org/2000/svg" viewBox="0 0 58.37 38.27">
    <path style="stroke: #000; stroke-miterlimit: 10; stroke-width: 1.5px;" d="m54.46.75H19.87c-.58,0-1.05.47-1.05,1.05v3.51H1.8c-.58,0-1.05.47-1.05,1.05,0,7.06,5.74,12.8,12.8,12.8,2.91,0,5.28,2.37,5.28,5.27s-2.37,5.28-5.28,5.28h-1c-.58,0-1.05.47-1.05,1.05v5.7c0,.58.47,1.05,1.05,1.05h9.21c.58,0,1.05-.47,1.05-1.05,0-2.52,3.7-4.65,8.07-4.65s8.07,2.13,8.07,4.65c0,.58.47,1.05,1.05,1.05h9.21c.58,0,1.05-.47,1.05-1.05v-5.7c0-.58-.47-1.05-1.05-1.05h-1c-2.91,0-5.28-2.37-5.28-5.28,0-4.94,4.02-8.97,8.97-8.97h2.56c1.74,0,3.16-1.42,3.16-3.16V3.91c0-1.74-1.42-3.16-3.16-3.16ZM13.55,17.06c-5.54,0-10.11-4.23-10.64-9.64h15.91v11.86c-1.34-1.37-3.21-2.23-5.28-2.23Zm41.97-4.74c0,.58-.47,1.05-1.05,1.05h-2.56c-6.11,0-11.07,4.97-11.07,11.07,0,4.05,3.28,7.35,7.33,7.38v3.6h-7.22c-.74-3.27-4.89-5.7-10.06-5.7s-9.32,2.43-10.06,5.7h-7.22v-3.6c4.05-.03,7.33-3.33,7.33-7.38V6.37h0v-3.51h33.54c.58,0,1.05.47,1.05,1.05v8.4Z"/>
</svg>